<svg width="14" height="14" viewBox="0 0 14 14" fill="none" xmlns="http://www.w3.org/2000/svg">
<path d="M4.66667 7.58329V9.91663M9.33333 2.91663V3.20829C9.33333 3.51771 9.45625 3.81446 9.67504 4.03325C9.89383 4.25204 10.1906 4.37496 10.5 4.37496C10.8094 4.37496 11.1062 4.49788 11.325 4.71667C11.5437 4.93546 11.6667 5.23221 11.6667 5.54163V5.83329M1.75 8.16663C1.75 8.01192 1.81146 7.86354 1.92085 7.75415C2.03025 7.64475 2.17862 7.58329 2.33333 7.58329H11.6667C11.8214 7.58329 11.9697 7.64475 12.0791 7.75415C12.1885 7.86354 12.25 8.01192 12.25 8.16663V9.33329C12.25 9.488 12.1885 9.63638 12.0791 9.74577C11.9697 9.85517 11.8214 9.91663 11.6667 9.91663H2.33333C2.17862 9.91663 2.03025 9.85517 1.92085 9.74577C1.81146 9.63638 1.75 9.488 1.75 9.33329V8.16663Z" stroke="#1F2129" stroke-width="0.8" stroke-linecap="round" stroke-linejoin="round"/>
</svg>
