<svg width="20" height="20" viewBox="0 0 20 20" fill="none" xmlns="http://www.w3.org/2000/svg">
<path d="M10 4.16663C9.89219 4.16655 9.78618 4.19436 9.69229 4.24737C9.5984 4.30037 9.51982 4.37677 9.46418 4.46913L6.78751 8.91663L2.84001 6.35079C2.73906 6.28529 2.62134 6.25032 2.501 6.2501C2.38066 6.24987 2.26281 6.28439 2.16161 6.34951C2.06041 6.41463 1.98016 6.50758 1.93051 6.6172C1.88085 6.72682 1.8639 6.84844 1.88168 6.96746L3.13168 15.3008C3.15385 15.4489 3.22846 15.5841 3.34195 15.6819C3.45544 15.7796 3.60024 15.8333 3.75001 15.8333H16.25C16.3998 15.8333 16.5446 15.7796 16.6581 15.6819C16.7716 15.5841 16.8462 15.4489 16.8683 15.3008L18.1183 6.96746C18.1361 6.84844 18.1192 6.72682 18.0695 6.6172C18.0199 6.50758 17.9396 6.41463 17.8384 6.34951C17.7372 6.28439 17.6194 6.24987 17.499 6.2501C17.3787 6.25032 17.261 6.28529 17.16 6.35079L13.2125 8.91663L10.5358 4.46996C10.4803 4.37745 10.4018 4.30089 10.3079 4.24773C10.214 4.19457 10.1079 4.16663 10 4.16663Z" fill="#1F2129"/>
</svg>
