<svg width="7" height="7" viewBox="0 0 7 7" fill="none" xmlns="http://www.w3.org/2000/svg">
<path d="M3.40002 1.1499C3.40002 1.34881 3.47904 1.53958 3.61969 1.68023C3.76035 1.82088 3.95111 1.8999 4.15002 1.8999C4.34894 1.8999 4.5397 1.82088 4.68035 1.68023C4.82101 1.53958 4.90002 1.34881 4.90002 1.1499C4.90002 0.95099 4.82101 0.760225 4.68035 0.619572C4.5397 0.47892 4.34894 0.399902 4.15002 0.399902C3.95111 0.399902 3.76035 0.47892 3.61969 0.619572C3.47904 0.760225 3.40002 0.95099 3.40002 1.1499Z" stroke="#1F2129" stroke-width="0.8" stroke-linecap="round" stroke-linejoin="round"/>
<path d="M0.400024 1.1499H3.40002" stroke="#1F2129" stroke-width="0.8" stroke-linecap="round" stroke-linejoin="round"/>
<path d="M4.90002 1.1499H6.40002" stroke="#1F2129" stroke-width="0.8" stroke-linecap="round" stroke-linejoin="round"/>
<path d="M1.15002 3.3999C1.15002 3.59881 1.22904 3.78958 1.36969 3.93023C1.51035 4.07088 1.70111 4.1499 1.90002 4.1499C2.09894 4.1499 2.2897 4.07088 2.43035 3.93023C2.57101 3.78958 2.65002 3.59881 2.65002 3.3999C2.65002 3.20099 2.57101 3.01022 2.43035 2.86957C2.2897 2.72892 2.09894 2.6499 1.90002 2.6499C1.70111 2.6499 1.51035 2.72892 1.36969 2.86957C1.22904 3.01022 1.15002 3.20099 1.15002 3.3999Z" stroke="#1F2129" stroke-width="0.8" stroke-linecap="round" stroke-linejoin="round"/>
<path d="M0.400024 3.3999H1.15002" stroke="#1F2129" stroke-width="0.8" stroke-linecap="round" stroke-linejoin="round"/>
<path d="M2.65002 3.3999H6.40002" stroke="#1F2129" stroke-width="0.8" stroke-linecap="round" stroke-linejoin="round"/>
<path d="M4.52502 5.6499C4.52502 5.84881 4.60404 6.03958 4.74469 6.18023C4.88535 6.32088 5.07611 6.3999 5.27502 6.3999C5.47394 6.3999 5.6647 6.32088 5.80535 6.18023C5.94601 6.03958 6.02502 5.84881 6.02502 5.6499C6.02502 5.45099 5.94601 5.26022 5.80535 5.11957C5.6647 4.97892 5.47394 4.8999 5.27502 4.8999C5.07611 4.8999 4.88535 4.97892 4.74469 5.11957C4.60404 5.26022 4.52502 5.45099 4.52502 5.6499Z" stroke="#1F2129" stroke-width="0.8" stroke-linecap="round" stroke-linejoin="round"/>
<path d="M0.400024 5.6499H4.52502" stroke="#1F2129" stroke-width="0.8" stroke-linecap="round" stroke-linejoin="round"/>
<path d="M6.02502 5.6499H6.40002" stroke="#1F2129" stroke-width="0.8" stroke-linecap="round" stroke-linejoin="round"/>
</svg>
