<svg preserveAspectRatio="none" overflow="visible" style="display: block;" width="116" height="116" viewBox="0 0 116 116" fill="none" xmlns="http://www.w3.org/2000/svg">
<g id="ICON">
<g id="Bounding box">
<rect width="116" height="116" rx="58" fill="#807DFE" fill-opacity="0.15"/>
<rect x="0.453125" y="0.453125" width="115.094" height="115.094" rx="57.5469" stroke="white" stroke-opacity="0.3" stroke-width="0.90625"/>
</g>
<g id="sms" filter="url(#filter0_d_0_401)">
<path d="M39.7709 80.2612L32.7833 87.4309C31.8212 88.4181 30.7199 88.6389 29.4793 88.0933C28.2388 87.5478 27.6185 86.5737 27.6185 85.1709V36.6192C27.6185 34.9047 28.2135 33.4369 29.4034 32.216C30.5933 30.9951 32.0237 30.3846 33.6947 30.3846H82.3042C83.9752 30.3846 85.4056 30.9951 86.5955 32.216C87.7855 33.4369 88.3804 34.9047 88.3804 36.6192V74.0266C88.3804 75.7411 87.7855 77.2088 86.5955 78.4298C85.4056 79.6507 83.9752 80.2612 82.3042 80.2612H39.7709ZM37.1885 74.0266H82.3042V36.6192H33.6947V77.5335L37.1885 74.0266ZM48.0117 57.5439C48.594 56.9465 48.8852 56.2061 48.8852 55.3229C48.8852 54.4396 48.594 53.6993 48.0117 53.1018C47.4294 52.5043 46.7079 52.2056 45.8471 52.2056C44.9863 52.2056 44.2647 52.5043 43.6824 53.1018C43.1001 53.6993 42.809 54.4396 42.809 55.3229C42.809 56.2061 43.1001 56.9465 43.6824 57.5439C44.2647 58.1414 44.9863 58.4402 45.8471 58.4402C46.7079 58.4402 47.4294 58.1414 48.0117 57.5439ZM60.1641 57.5439C60.7464 56.9465 61.0375 56.2061 61.0375 55.3229C61.0375 54.4396 60.7464 53.6993 60.1641 53.1018C59.5818 52.5043 58.8602 52.2056 57.9995 52.2056C57.1387 52.2056 56.4171 52.5043 55.8348 53.1018C55.2525 53.6993 54.9614 54.4396 54.9614 55.3229C54.9614 56.2061 55.2525 56.9465 55.8348 57.5439C56.4171 58.1414 57.1387 58.4402 57.9995 58.4402C58.8602 58.4402 59.5818 58.1414 60.1641 57.5439ZM72.3165 57.5439C72.8988 56.9465 73.1899 56.2061 73.1899 55.3229C73.1899 54.4396 72.8988 53.6993 72.3165 53.1018C71.7342 52.5043 71.0126 52.2056 70.1518 52.2056C69.291 52.2056 68.5695 52.5043 67.9872 53.1018C67.4049 53.6993 67.1137 54.4396 67.1137 55.3229C67.1137 56.2061 67.4049 56.9465 67.9872 57.5439C68.5695 58.1414 69.291 58.4402 70.1518 58.4402C71.0126 58.4402 71.7342 58.1414 72.3165 57.5439Z" fill="#6C44FF"/>
</g>
</g>
<defs>
<filter id="filter0_d_0_401" x="23.9935" y="26.7596" width="68.0119" height="65.25" filterUnits="userSpaceOnUse" color-interpolation-filters="sRGB">
<feFlood flood-opacity="0" result="BackgroundImageFix"/>
<feColorMatrix in="SourceAlpha" type="matrix" values="0 0 0 0 0 0 0 0 0 0 0 0 0 0 0 0 0 0 127 0" result="hardAlpha"/>
<feOffset/>
<feGaussianBlur stdDeviation="1.8125"/>
<feComposite in2="hardAlpha" operator="out"/>
<feColorMatrix type="matrix" values="0 0 0 0 0 0 0 0 0 0 0 0 0 0 0 0 0 0 0.05 0"/>
<feBlend mode="normal" in2="BackgroundImageFix" result="effect1_dropShadow_0_401"/>
<feBlend mode="normal" in="SourceGraphic" in2="effect1_dropShadow_0_401" result="shape"/>
</filter>
</defs>
</svg>
