<svg width="24" height="24" viewBox="0 0 24 24" fill="none" xmlns="http://www.w3.org/2000/svg">
<mask id="mask0_1547_903" style="mask-type:alpha" maskUnits="userSpaceOnUse" x="0" y="0" width="24" height="24">
<rect width="24" height="24" fill="#D9D9D9"/>
</mask>
<g mask="url(#mask0_1547_903)">
<path d="M4 19.0801V10.0801C4 9.76341 4.07083 9.46341 4.2125 9.18008C4.35417 8.89674 4.55 8.66341 4.8 8.48008L10.8 3.98008C11.15 3.71341 11.55 3.58008 12 3.58008C12.45 3.58008 12.85 3.71341 13.2 3.98008L19.2 8.48008C19.45 8.66341 19.6458 8.89674 19.7875 9.18008C19.9292 9.46341 20 9.76341 20 10.0801V19.0801C20 19.6301 19.8042 20.1009 19.4125 20.4926C19.0208 20.8842 18.55 21.0801 18 21.0801H15C14.7167 21.0801 14.4792 20.9842 14.2875 20.7926C14.0958 20.6009 14 20.3634 14 20.0801V15.0801C14 14.7967 13.9042 14.5592 13.7125 14.3676C13.5208 14.1759 13.2833 14.0801 13 14.0801H11C10.7167 14.0801 10.4792 14.1759 10.2875 14.3676C10.0958 14.5592 10 14.7967 10 15.0801V20.0801C10 20.3634 9.90417 20.6009 9.7125 20.7926C9.52083 20.9842 9.28333 21.0801 9 21.0801H6C5.45 21.0801 4.97917 20.8842 4.5875 20.4926C4.19583 20.1009 4 19.6301 4 19.0801Z" fill="white"/>
</g>
</svg>
