<svg width="20" height="20" viewBox="0 0 20 20" fill="none" xmlns="http://www.w3.org/2000/svg">
<path d="M16.425 19.4185C16.1417 19.4185 15.9042 19.3227 15.7125 19.131C15.5208 18.9394 15.425 18.7019 15.425 18.4185C15.425 18.2852 15.45 18.1519 15.5 18.0185C15.55 17.8852 15.6167 17.7769 15.7 17.6935C16.4167 16.9769 16.9792 16.1519 17.3875 15.2185C17.7958 14.2852 18 13.2685 18 12.1685C18 11.0852 17.7958 10.0727 17.3875 9.13102C16.9792 8.18935 16.4167 7.36019 15.7 6.64352C15.6167 6.56019 15.55 6.45185 15.5 6.31852C15.45 6.18519 15.425 6.05185 15.425 5.91852C15.425 5.63519 15.5208 5.39769 15.7125 5.20602C15.9042 5.01435 16.1417 4.91852 16.425 4.91852C16.5583 4.91852 16.6875 4.94769 16.8125 5.00602C16.9375 5.06435 17.0417 5.13519 17.125 5.21852C18.025 6.11852 18.7292 7.16435 19.2375 8.35602C19.7458 9.54769 20 10.8185 20 12.1685C20 13.5352 19.7458 14.8102 19.2375 15.9935C18.7292 17.1769 18.025 18.2185 17.125 19.1185C17.0417 19.2019 16.9375 19.2727 16.8125 19.331C16.6875 19.3894 16.5583 19.4185 16.425 19.4185ZM13.575 16.5685C13.2917 16.5685 13.0542 16.4727 12.8625 16.281C12.6708 16.0894 12.575 15.8519 12.575 15.5685C12.575 15.4352 12.6042 15.306 12.6625 15.181C12.7208 15.056 12.7917 14.9519 12.875 14.8685C13.225 14.5185 13.5 14.1144 13.7 13.656C13.9 13.1977 14 12.7019 14 12.1685C14 11.6352 13.8958 11.1394 13.6875 10.681C13.4792 10.2227 13.2083 9.81852 12.875 9.46852C12.775 9.38519 12.7 9.28102 12.65 9.15602C12.6 9.03102 12.575 8.90185 12.575 8.76852C12.575 8.48519 12.6708 8.24769 12.8625 8.05602C13.0542 7.86435 13.2917 7.76852 13.575 7.76852C13.7083 7.76852 13.8417 7.79352 13.975 7.84352C14.1083 7.89352 14.2167 7.96852 14.3 8.06852C14.8333 8.60185 15.25 9.21852 15.55 9.91852C15.85 10.6185 16 11.3685 16 12.1685C16 12.9685 15.85 13.7185 15.55 14.4185C15.25 15.1185 14.8333 15.7352 14.3 16.2685C14.2167 16.3685 14.1083 16.4435 13.975 16.4935C13.8417 16.5435 13.7083 16.5685 13.575 16.5685ZM6 12.1185H4V12.3935C4 12.9769 4.17917 13.4894 4.5375 13.931C4.89583 14.3727 5.35 14.6685 5.9 14.8185L6.2 14.8935C6.86667 15.0602 7.24167 15.4769 7.325 16.1435C7.40833 16.8102 7.15 17.3102 6.55 17.6435C5.7 18.1269 4.80833 18.4769 3.875 18.6935C2.94167 18.9102 1.98333 19.0435 1 19.0935C0.716667 19.1102 0.479167 19.0227 0.2875 18.831C0.0958333 18.6394 0 18.4019 0 18.1185C0 17.8352 0.0958333 17.5977 0.2875 17.406C0.479167 17.2144 0.716667 17.1102 1 17.0935C1.6 17.0602 2.1875 16.9894 2.7625 16.881C3.3375 16.7727 3.90833 16.6185 4.475 16.4185C3.70833 16.0352 3.10417 15.481 2.6625 14.756C2.22083 14.031 2 13.2435 2 12.3935V11.1185C2 10.8352 2.09583 10.5977 2.2875 10.406C2.47917 10.2144 2.71667 10.1185 3 10.1185H6V8.11852C6 7.83519 6.09583 7.59769 6.2875 7.40602C6.47917 7.21435 6.71667 7.11852 7 7.11852H9.375L6.55 1.46852C6.41667 1.21852 6.39583 0.964352 6.4875 0.706019C6.57917 0.447685 6.75 0.251852 7 0.118519C7.25 -0.0148148 7.50417 -0.0356481 7.7625 0.0560185C8.02083 0.147685 8.21667 0.318519 8.35 0.568519L11.175 6.21852C11.5083 6.88519 11.4833 7.53519 11.1 8.16852C10.7167 8.80185 10.15 9.11852 9.4 9.11852H8V10.1185C8 10.6685 7.80417 11.1394 7.4125 11.531C7.02083 11.9227 6.55 12.1185 6 12.1185Z" fill="#0033FF"/>
</svg>
